# xmcd
#
# Track frame offsets: 
#        150
#        16408
#        34652
#        47507
#        66491
#        86681
#        109298
#        136784
#        156241
#        174217
#        199827
#        219698
#        245994
#
# Disc length: 3398 seconds
#
# Revision: 0
# Processed by: cddbd v1.5.2PL0 Copyright (c) Steve Scherf et al.
# Submitted via: ExactAudioCopy v1.0b6
#
DISCID=b90d440d
DTITLE=Heart of the City Worship Band - What We Really Need (1999) [fe
DTITLE=at. Dan and Sandy Adler]
DYEAR=1999
DGENRE=Praise and Worship
TTITLE0=We Believe You
TTITLE1=Rise Up
TTITLE2=We Celebrate the Love of God
TTITLE3=It is Good
TTITLE4=We Will Not Offer You
TTITLE5=What We Really Need
TTITLE6=Let Your Love Flow
TTITLE7=I Will Sing Unto the Lamb
TTITLE8=We Choose to Bow
TTITLE9=Open the Eyes of Our Hearts
TTITLE10=We Love You Lord
TTITLE11=Right Here, Right Now
TTITLE12=What We Really Need - Epilogue
EXTD=CD Baby id:hotc1Barcode: 703132031729
EXTT0=
EXTT1=
EXTT2=
EXTT3=
EXTT4=
EXTT5=
EXTT6=
EXTT7=
EXTT8=
EXTT9=
EXTT10=
EXTT11=
EXTT12=
PLAYORDER=
